# xmcd
#
# Track frame offsets:
# 150
# 15445
# 35456
# 50645
# 70777
# 85935
# 103522
# 123627
# 133403
# 142732
# 170433
# 183871
# 203674
# 224825
# 251209
# 261737
#
# Disc length: 3693 seconds
#
# Revision: 0
# Processed by: cddbd v1.4PL0 Copyright (c) Steve Scherf et al.
# Submitted via: Audion 3.0.2 (http://www.panic.com/audion/)
#
DISCID=f40e6b10
DTITLE=Incubus - adfas
DYEAR=1900
DGENRE=
TTITLE0=hh
TTITLE1=kjh
TTITLE2=kjhkjh
TTITLE3=kjhkhj
TTITLE4=kjhkj
TTITLE5=kjhkhj
TTITLE6=lkjhhlkj
TTITLE7=lkjhlkhj
TTITLE8=lkjhhkj
TTITLE9=lkjhhlkj
TTITLE10=lkjhkjl
TTITLE11=lkjhlkhj
TTITLE12=lkjhkj
TTITLE13=lkjhkhj
TTITLE14=lkjhlkjh
TTITLE15=lkjhkj
EXTD=
EXTT0=
EXTT1=
EXTT2=
EXTT3=
EXTT4=
EXTT5=
EXTT6=
EXTT7=
EXTT8=
EXTT9=
EXTT10=
EXTT11=
EXTT12=
EXTT13=
EXTT14=
EXTT15=
PLAYORDER=
